<?xml version="1.0" standalone="no"?>
<!DOCTYPE svg PUBLIC "-//W3C//DTD SVG 20010904//EN"
 "http://www.w3.org/TR/2001/REC-SVG-20010904/DTD/svg10.dtd">
<svg version="1.0" xmlns="http://www.w3.org/2000/svg"
 width="750.000000pt" height="750.000000pt" viewBox="0 0 750.000000 750.000000"
 preserveAspectRatio="xMidYMid meet">
<metadata>
Created by potrace 1.11, written by Peter Selinger 2001-2013
</metadata>
<g transform="translate(0.000000,750.000000) scale(0.100000,-0.100000)"
fill="#000000" stroke="none">
<path d="M3539 6216 c-2 -2 -40 -6 -84 -10 -87 -7 -136 -13 -175 -21 -14 -3
-43 -8 -65 -11 -152 -22 -415 -98 -595 -171 -228 -94 -542 -277 -699 -408
-229 -190 -380 -345 -528 -540 -294 -389 -485 -850 -559 -1347 -2 -16 -7 -43
-10 -60 -11 -58 -13 -581 -3 -653 5 -38 10 -80 11 -92 3 -27 6 -25 70 44 57
60 250 250 284 280 12 10 52 46 90 80 38 34 114 98 169 143 55 45 113 92 128
105 20 16 30 35 33 61 2 22 6 50 9 64 3 14 8 37 10 51 18 97 68 261 118 384
32 79 126 259 175 334 178 277 422 516 697 683 156 95 410 206 531 233 10 2
46 11 78 20 33 8 77 18 99 21 22 2 59 9 82 14 92 21 361 29 505 17 320 -29
655 -135 906 -288 17 -10 33 -16 36 -14 13 14 489 102 643 120 32 4 66 8 75
10 21 4 176 17 233 20 26 1 50 5 53 8 4 3 -34 45 -82 93 -436 425 -1015 715
-1591 798 -59 9 -126 18 -148 21 -43 7 -490 16 -496 11z"/>
<path d="M5819 5176 c-2 -2 -44 -7 -94 -10 -96 -7 -139 -11 -207 -21 -24 -3
-61 -8 -83 -11 -22 -2 -51 -7 -65 -9 -14 -3 -41 -7 -60 -10 -19 -3 -48 -8 -65
-11 -90 -14 -251 -48 -257 -53 -4 -4 27 -33 69 -66 81 -64 254 -230 316 -305
21 -25 68 -87 105 -138 l67 -93 64 7 c36 3 73 8 84 10 83 16 384 22 547 11
130 -9 138 -10 335 -52 59 -13 196 -69 259 -106 191 -114 297 -287 298 -489 1
-111 -10 -174 -48 -290 -51 -151 -136 -307 -262 -480 -48 -67 -50 -71 -15 -35
39 40 169 194 210 250 12 17 37 50 55 75 69 92 190 292 240 400 145 311 175
606 84 832 -88 217 -278 382 -554 482 -74 26 -200 60 -262 71 -19 3 -42 8 -50
10 -8 2 -40 7 -70 11 -30 3 -66 8 -80 10 -30 6 -556 15 -561 10z"/>
<path d="M3553 4992 c-67 -124 -122 -224 -157 -287 -16 -27 -44 -79 -64 -115
-19 -36 -62 -114 -95 -175 -33 -60 -70 -128 -82 -150 -12 -22 -60 -110 -107
-195 -47 -85 -140 -254 -206 -375 -115 -212 -138 -253 -187 -340 -12 -22 -38
-69 -58 -105 -47 -88 -252 -464 -314 -575 -28 -49 -67 -121 -88 -160 -68 -126
-158 -289 -182 -330 -13 -22 -28 -52 -34 -67 -6 -16 -14 -28 -18 -28 -18 0
-183 296 -205 368 -4 12 -11 22 -15 22 -20 0 -280 -281 -375 -405 -25 -33 -49
-64 -54 -70 -4 -5 -31 -46 -59 -89 -61 -93 -64 -75 48 -243 196 -292 471 -572
762 -774 43 -30 86 -58 95 -64 9 -5 30 -18 45 -29 15 -10 30 -17 31 -15 7 9
50 111 341 819 422 1026 427 1040 434 1040 3 0 26 -19 51 -43 401 -375 380
-357 386 -324 1 7 5 28 8 47 5 30 16 82 21 100 1 4 6 28 21 100 1 8 12 60 24
115 12 55 24 111 26 125 3 13 12 56 20 95 9 38 17 80 20 93 7 36 13 66 18 87
2 11 20 97 39 190 20 94 54 258 77 365 22 107 48 233 57 279 20 96 20 96 52
-79 12 -63 24 -126 26 -140 15 -78 48 -248 51 -265 2 -11 20 -101 39 -200 19
-99 36 -189 39 -200 2 -11 7 -40 12 -65 4 -25 8 -47 9 -50 1 -3 5 -25 9 -50 5
-25 10 -52 11 -60 2 -8 13 -62 24 -120 11 -58 23 -116 25 -130 4 -22 17 -90
31 -160 3 -14 9 -50 15 -80 6 -30 12 -66 15 -80 7 -36 19 -94 20 -100 1 -3 5
-27 10 -55 10 -57 9 -50 18 -90 4 -16 9 -43 12 -60 6 -38 13 -71 31 -165 8
-41 19 -97 24 -125 5 -27 12 -63 15 -80 18 -88 55 -285 60 -315 3 -19 10 -52
14 -72 5 -21 7 -38 4 -38 -6 0 -74 32 -248 115 -329 158 -391 188 -411 195
l-22 9 0 -451 -1 -450 192 5 c106 4 203 8 217 11 14 2 55 7 92 11 77 7 84 8
233 36 161 29 441 109 530 149 11 5 43 18 70 29 276 105 597 313 842 545 365
345 650 861 749 1354 24 121 43 240 51 327 10 103 10 553 0 625 -5 30 -10 75
-13 100 -8 64 -41 229 -65 324 -22 89 -87 287 -97 298 -8 8 -99 23 -202 33
-71 8 -343 8 -430 1 -30 -3 -86 -8 -125 -12 -38 -4 -76 -7 -82 -7 -18 0 -17
-7 17 -68 84 -156 180 -442 205 -614 4 -22 8 -51 11 -65 20 -117 23 -414 5
-556 -39 -299 -135 -584 -284 -836 -59 -100 -203 -298 -217 -298 -7 0 -226
391 -398 710 -35 66 -81 150 -112 205 -9 17 -46 84 -82 150 -56 102 -336 613
-429 783 -16 28 -42 76 -58 105 -63 115 -145 265 -171 312 -15 28 -91 167
-170 310 -217 397 -332 605 -334 605 0 0 -25 -44 -53 -98z"/>
<path d="M1479 3334 c-226 -188 -478 -434 -629 -614 -30 -36 -58 -67 -61 -70
-21 -17 -185 -246 -238 -332 -140 -224 -235 -456 -259 -633 -11 -81 -7 -276 8
-334 56 -232 209 -409 459 -531 162 -80 375 -135 596 -156 33 -3 71 -7 85 -10
34 -6 421 -5 494 1 92 8 79 15 -30 17 -111 2 -106 1 -189 13 -79 10 -95 13
-125 20 -14 3 -37 7 -52 10 -57 11 -195 58 -253 88 -187 93 -305 232 -345 405
-48 209 37 498 235 792 117 173 199 271 390 468 80 83 129 140 127 151 -2 9
-10 36 -19 61 -9 25 -19 61 -23 80 -15 66 -31 145 -36 179 -3 18 -8 43 -10 55
-11 52 -18 172 -19 293 0 73 0 133 -1 133 -1 0 -48 -39 -105 -86z"/>
</g>
</svg>
